<svg width="25" height="25" viewBox="0 0 25 25" fill="none" xmlns="http://www.w3.org/2000/svg">
<g clip-path="url(#clip0_25_273)">
<path d="M20.6464 17.9518H23.1425L20.9263 20.8561L18.7108 20.6009L20.6464 17.9518Z" fill="#C85929"/>
<path d="M21.7926 15.2005H24.2118L23.257 17.3405L23.091 17.7142H20.9263L21.7926 15.2005Z" fill="#E7A52E"/>
<path d="M19.7886 21.5436C19.7886 21.5436 16.8428 22.86 16.809 22.8684C16.7751 22.8769 15.5444 23.0468 15.5099 23.0553C15.476 23.0638 14.958 22.9023 15.0855 22.8177C15.2131 22.733 17.6831 21.153 17.7085 21.1276C17.7339 21.1022 19.4489 20.8561 19.4489 20.8561L20.2214 21.0599L19.7886 21.5436Z" fill="#E7A52E"/>
<path d="M22.0217 12.5H24.7214L24.2118 15.2005H21.7926L22.0217 12.5Z" fill="#C85929"/>
<path d="M21.7926 10.2584L22.0217 12.5H24.7214L24.4155 10.0032H21.7926V10.2584Z" fill="#E7A52E"/>
<path d="M23.3462 7.35415L24.4155 9.74868H21.7926L20.6464 7.09894L23.3462 7.35415Z" fill="#C85929"/>
<path d="M20.9009 4.34766L23.1425 7.09896H20.6464L18.7108 4.75521L20.9009 4.34766Z" fill="#E7A52E"/>
<path d="M15.5014 1.8255L19.9839 3.86066V4.34764H18.0098L15.0432 2.20766L15.5014 1.8255Z" fill="#C85929"/>
<path d="M11.1212 23.1745C17.0148 23.1745 21.7926 18.3953 21.7926 12.5C21.7926 6.60463 17.0148 1.8255 11.1212 1.8255C5.2275 1.8255 0.449741 6.60463 0.449741 12.5C0.449741 18.3953 5.2275 23.1745 11.1212 23.1745Z" fill="#F6E266"/>
<path d="M11.2227 21.388C16.0613 21.388 19.9839 17.4644 19.9839 12.6243C19.9839 7.78429 16.0613 3.86066 11.2227 3.86066C6.38404 3.86066 2.46153 7.78429 2.46153 12.6243C2.46153 17.4644 6.38404 21.388 11.2227 21.388Z" fill="#E7A52E"/>
<path d="M6.1291 11.3281L9.08399 10.4622L10.9682 7.76172H11.6815L13.0568 10.207L16.4185 11.3281L14.5336 14.0286V17.5951L11.2741 16.474L8.06475 17.5951L7.81026 16.627L8.06475 14.1302L5.82385 11.5319L6.1291 11.3281Z" fill="#C85929"/>
<path d="M0.0488129 11.8418C0.111295 11.4101 0.157506 10.9752 0.239513 10.5475C0.833093 7.4505 2.44591 5.01625 5.05519 3.25779C6.91534 2.00323 8.98766 1.39972 11.2299 1.40167C12.447 1.40297 13.6693 1.36912 14.8805 1.46417C17.3668 1.65883 19.5315 2.65232 21.3663 4.33526C23.3208 6.12888 24.4858 8.35545 24.8796 10.9785C25.701 16.4466 22.2475 21.7988 16.9411 23.304C15.9108 23.5963 14.8649 23.7487 13.7955 23.7474C12.7561 23.7461 11.7134 23.7955 10.6786 23.7246C6.47861 23.4368 3.36427 21.4179 1.31733 17.7435C1.18651 17.5084 1.23467 17.2995 1.42147 17.1927C1.62909 17.0742 1.8276 17.153 1.97144 17.4225C3.03689 19.4173 4.57486 20.9297 6.59902 21.9381C12.598 24.9271 19.9162 21.4648 21.3923 14.9414C22.6517 9.37498 19.3681 3.93683 13.8567 2.46157C8.45331 1.01495 2.74466 4.24998 1.20278 9.62954C0.603992 11.7181 0.637837 13.7942 1.31082 15.86C1.42798 16.22 1.37656 16.4206 1.14615 16.5032C0.907942 16.5885 0.73937 16.4544 0.615708 16.084C0.333887 15.2415 0.158157 14.3776 0.0891659 13.4915C0.0839591 13.4284 0.0624808 13.3665 0.0488129 13.304C0.0488129 12.817 0.0488129 12.3294 0.0488129 11.8418ZM24.0296 10.2467C23.3826 10.2467 22.7793 10.2467 22.1942 10.2467C22.2573 10.86 22.323 11.4622 22.3797 12.0657C22.3927 12.2051 22.4714 12.2122 22.5775 12.2116C22.8932 12.209 23.2095 12.2109 23.5252 12.2109C23.764 12.2109 24.0029 12.2109 24.2873 12.2109C24.1968 11.526 24.1135 10.888 24.0296 10.2467ZM22.4168 12.959C22.3387 13.6074 22.2619 14.248 22.1831 14.8997C22.7793 14.8997 23.3833 14.8997 24.0289 14.8997C24.1129 14.2565 24.1962 13.6191 24.2821 12.959C23.628 12.959 23.0247 12.959 22.4168 12.959ZM21.2543 17.6139C21.6917 17.6139 22.1304 17.5918 22.5652 17.6211C22.8795 17.6426 23.052 17.5423 23.1659 17.2467C23.3683 16.7213 23.6026 16.2077 23.8428 15.6432C23.2017 15.6432 22.6361 15.6406 22.0705 15.6478C22.0256 15.6484 21.9579 15.7077 21.9403 15.7545C21.7125 16.3594 21.4919 16.9668 21.2543 17.6139ZM21.242 7.53513C21.5017 8.2031 21.7496 8.84177 22.0002 9.48696C22.5795 9.48696 23.1743 9.48696 23.8512 9.48696C23.5577 8.83396 23.2843 8.22329 23.0064 7.61521C22.9902 7.57941 22.9348 7.53839 22.8971 7.53774C22.3491 7.53383 21.801 7.53513 21.242 7.53513ZM19.3616 20.319C19.8127 20.319 20.2813 20.3235 20.7493 20.3138C20.817 20.3125 20.8996 20.2545 20.9484 20.1992C21.4294 19.653 21.9058 19.1022 22.381 18.5501C22.4239 18.5 22.4486 18.4349 22.4994 18.3457C21.9429 18.3457 21.4255 18.3424 20.9087 18.3502C20.8495 18.3509 20.7733 18.4004 20.7362 18.4505C20.278 19.0664 19.8257 19.6868 19.3616 20.319ZM22.5215 6.80141C22.0301 6.05727 21.4847 5.43292 20.8671 4.86977C20.8449 4.84959 20.8104 4.83266 20.7818 4.83201C20.3015 4.82941 19.8211 4.83006 19.348 4.83006C19.771 5.3893 20.2019 5.91534 20.5794 6.47719C20.7454 6.72394 20.9068 6.82485 21.199 6.80727C21.6234 6.78253 22.0503 6.80141 22.5215 6.80141ZM15.8164 22.7767C17.2997 22.5397 18.6346 21.9622 19.8413 21.0768C19.456 21.0514 19.0766 21.041 18.6991 21.0573C18.5819 21.0625 18.4557 21.1185 18.3548 21.1842C17.6981 21.6133 17.0498 22.0553 16.3924 22.483C16.2122 22.5996 16.0091 22.6797 15.8164 22.7767ZM15.8184 2.36521C15.8431 2.38149 15.8665 2.40102 15.8932 2.41339C16.8031 2.83331 17.6414 3.36717 18.4088 4.0117C18.4452 4.0423 18.4882 4.08787 18.5285 4.08787C18.9672 4.09308 19.4059 4.09112 19.8446 4.09112C18.634 3.18422 17.2997 2.60545 15.8184 2.36521Z" fill="black"/>
<path d="M20.2924 12.7747C20.2449 16.9414 17.2835 20.5612 13.0327 21.4629C8.28864 22.4694 3.44563 19.3607 2.38994 14.6302C1.34857 9.9655 3.91685 5.36198 8.48259 3.94532C11.9725 2.86263 15.0797 3.6836 17.7117 6.23763C17.9187 6.43815 17.9298 6.65105 17.7605 6.8125C17.5939 6.97136 17.3941 6.95052 17.1858 6.74024C15.9446 5.48698 14.4614 4.70118 12.7275 4.36394C8.47348 3.53711 4.09713 6.36719 3.12215 10.5885C2.22983 14.4531 3.98323 18.2331 7.50306 20.0345C12.2322 22.4544 18.1608 19.6849 19.335 14.4987C19.8582 12.1855 19.484 10.0195 18.2083 8.01498C18.1868 7.98047 18.1621 7.94792 18.1419 7.91276C18.0254 7.70899 18.0586 7.51107 18.2265 7.39519C18.4042 7.27279 18.6301 7.30599 18.7492 7.51888C19.0609 8.07683 19.3877 8.63151 19.6409 9.2168C20.1036 10.2871 20.2911 11.4219 20.2924 12.7747Z" fill="black"/>
<path d="M11.2194 8.04558C10.8185 8.66081 10.4339 9.26107 10.0401 9.85547C9.37362 10.8607 9.66129 10.6641 8.49887 10.9818C7.81222 11.1699 7.12426 11.3548 6.41157 11.5482C6.45844 11.6185 6.48772 11.6712 6.52482 11.7175C7.06438 12.3874 7.60134 13.0599 8.14806 13.7246C8.31728 13.9303 8.39863 14.1484 8.38236 14.4167C8.33355 15.2188 8.2971 16.0221 8.25545 16.8249C8.24894 16.946 8.24373 17.0664 8.23592 17.2227C8.3329 17.1921 8.4071 17.1725 8.47869 17.1452C9.25842 16.8477 10.0407 16.5566 10.8153 16.2454C11.0984 16.1315 11.3607 16.1224 11.636 16.2467C11.7981 16.3197 11.9712 16.3704 12.1332 16.4434C12.3428 16.5378 12.4235 16.7331 12.3454 16.9212C12.266 17.1113 12.0616 17.2207 11.8651 17.1107C11.3887 16.8425 10.9558 16.9434 10.4892 17.1478C9.84419 17.4303 9.17641 17.6621 8.51709 17.9115C7.93262 18.1328 7.48028 17.8145 7.50631 17.1901C7.54406 16.2982 7.60524 15.4063 7.63779 14.5143C7.64299 14.3776 7.58507 14.2116 7.4998 14.1035C6.95959 13.4134 6.40246 12.7363 5.85249 12.0527C5.42943 11.5267 5.59605 11.0078 6.24626 10.8314C7.09888 10.6003 7.9541 10.3789 8.80347 10.1374C8.92778 10.1022 9.06186 10.0026 9.1341 9.89453C9.6268 9.16016 10.1026 8.41472 10.5868 7.67448C10.9454 7.1263 11.4954 7.12435 11.854 7.67123C12.3389 8.41081 12.814 9.1569 13.308 9.89063C13.3842 10.0033 13.5287 10.1022 13.6608 10.14C14.5024 10.3802 15.3491 10.6009 16.1939 10.8301C16.8402 11.0052 17.0114 11.5273 16.5923 12.0508C16.039 12.7415 15.4767 13.4245 14.93 14.1204C14.8538 14.2168 14.8057 14.3672 14.8102 14.4902C14.8434 15.3665 14.8883 16.2422 14.9397 17.1172C14.9807 17.8125 14.5388 18.1426 13.8827 17.8939C13.6855 17.819 13.487 17.7487 13.2924 17.6686C13.0575 17.5723 12.9637 17.3893 13.0379 17.1908C13.1186 16.9753 13.3054 16.903 13.5599 16.9909C13.7584 17.0592 13.9556 17.1322 14.1535 17.2018C14.1594 17.2038 14.1685 17.1973 14.1965 17.1875C14.1965 17.1328 14.1991 17.0716 14.1958 17.0098C14.1535 16.1341 14.1131 15.2578 14.0656 14.3822C14.0526 14.1413 14.1216 13.9421 14.2746 13.7552C14.8102 13.1022 15.3368 12.4427 15.8672 11.7858C15.9225 11.7175 15.9765 11.6478 16.0514 11.5534C15.6824 11.4518 15.3413 11.3568 14.999 11.2643C14.4431 11.1146 13.8886 10.9616 13.3308 10.8203C13.0802 10.7565 12.8986 10.6217 12.7594 10.4036C12.2999 9.6862 11.8312 8.97461 11.3659 8.26107C11.3242 8.19466 11.278 8.13086 11.2194 8.04558Z" fill="black"/>
</g>
<defs>
<clipPath id="clip0_25_273">
<rect width="25" height="25" fill="white"/>
</clipPath>
</defs>
</svg>
