<svg width="44" height="47" viewBox="0 0 44 47" fill="none" xmlns="http://www.w3.org/2000/svg">
<path d="M43.8908 38.5122C43.2847 36.2595 42.6329 34.0195 41.9891 31.7773C41.7801 31.0493 41.6078 30.2987 41.2965 29.6151C40.5329 27.9393 39.1517 27.1471 37.3591 27.0236C36.6251 26.9729 35.9186 27.1494 35.2031 27.2693C34.0883 27.4561 33.358 28.0791 32.9977 29.1487C32.9506 29.2885 32.8842 29.3459 32.7447 29.3749C31.6519 29.6011 30.5604 29.8359 29.4685 30.0675C29.1231 30.1408 28.7777 30.2128 28.4255 30.2865C28.4085 30.2155 28.3914 30.1689 28.3874 30.1214C28.3394 29.5676 28.3704 29.0256 28.6081 28.5098C28.8876 27.9045 29.0101 27.2643 28.9576 26.5997C28.9289 26.2368 28.8777 25.8744 28.8167 25.5147C29.6691 25.1066 30.5003 24.6447 31.3123 24.1326C31.7555 23.853 31.9368 23.4978 31.9345 22.9698C31.9197 19.3694 31.9296 15.7685 31.9211 12.168C31.9206 11.9287 31.9884 11.802 32.2082 11.7129C32.5621 11.569 32.9049 11.3971 33.2516 11.2351C34.8025 10.5108 36.3533 9.78734 37.9028 9.06074C38.3962 8.82955 38.5609 8.5599 38.5174 8.09209C38.477 7.66001 38.1953 7.44737 37.8288 7.29626C32.0207 4.90336 26.2144 2.50864 20.4107 0.107141C20.072 -0.0331129 19.7621 -0.0362799 19.4274 0.101259C13.5794 2.50502 7.73001 4.90562 1.88109 7.30667C1.52939 7.45099 1.23914 7.64916 1.21177 8.07716C1.1853 8.49656 1.35577 8.79878 1.7658 8.9603C1.73171 9.0345 1.71062 9.09286 1.68012 9.1458C1.03412 10.2805 0.736699 11.5043 0.850645 12.8032C0.985227 14.3338 1.17768 15.859 1.33155 17.3877C1.34546 17.5271 1.29342 17.6976 1.21671 17.8175C0.992853 18.1668 0.720101 18.4853 0.505219 18.8396C0.155755 19.4151 -0.0411831 20.0435 0.00726635 20.7276C0.0431548 21.2356 0.43389 21.5424 0.979395 21.5107C1.44101 21.484 1.70658 21.1519 1.71645 20.6448C1.72139 20.395 1.79002 20.1466 1.82995 19.8978C1.92685 19.9593 1.9439 20.0087 1.96184 20.058C2.15115 20.5832 2.63789 20.8669 3.07259 20.7058C3.57906 20.5176 3.76838 20.0435 3.56785 19.4689C3.52568 19.3481 3.49024 19.2246 3.42833 19.0269C3.87111 19.2934 4.1636 19.5721 4.37444 19.9444C4.60906 20.3588 5.17745 20.5213 5.56908 20.3045C5.95937 20.0887 6.14105 19.5006 5.89118 19.0993C5.3035 18.1555 4.5319 17.4185 3.40635 17.1905C3.117 17.1316 3.04792 17.0077 3.0192 16.7629C2.87789 15.5545 2.71012 14.3487 2.58944 13.1385C2.46338 11.8771 2.66525 10.6723 3.3422 9.53353C3.46108 9.5842 3.55843 9.62311 3.65308 9.667C4.94552 10.2656 6.23526 10.87 7.53173 11.4591C7.74571 11.5563 7.82018 11.6695 7.81928 11.9106C7.81031 15.5219 7.81884 19.1332 7.80583 22.7445C7.80403 23.1942 7.96867 23.5295 8.28314 23.8104C8.44913 23.9588 8.62902 24.0964 8.81698 24.2158C13.194 26.9897 17.9125 28.2248 23.0795 27.3498C24.6344 27.0865 26.126 26.6544 27.5602 26.0712C27.6705 26.787 27.6773 27.5032 27.3143 28.1492C26.9806 28.7433 26.9308 29.3568 27.0183 30.006C27.0411 30.177 27.0577 30.349 27.0775 30.5249C26.0233 30.7507 25.2158 30.9634 24.1894 31.1977C23.9458 31.2534 23.7887 31.2176 23.6075 31.0303C22.9988 30.4023 22.2666 30.0761 21.3766 30.2345C21.0267 30.2965 20.6786 30.3702 20.3322 30.4498C19.1838 30.7145 18.1937 31.2565 17.4302 32.1777C16.7039 33.0536 16.319 34.0738 16.3419 35.209C16.3562 35.9229 16.494 36.635 16.5855 37.3467C16.7851 38.8958 16.9861 40.4449 17.1951 41.9927C17.2961 42.7379 17.3508 43.4979 17.5428 44.2196C17.908 45.5895 18.7899 46.5279 20.1658 46.8889C21.3569 47.2015 22.4263 46.8296 23.3729 46.0831C23.8116 45.737 24.0588 45.2529 24.1786 44.71C24.2903 44.2019 24.3814 43.6893 24.4823 43.179C24.5855 42.6573 24.6891 42.1361 24.7963 41.5932C24.9134 41.6457 25.0072 41.6887 25.1014 41.7303C25.9241 42.0931 26.7482 42.1633 27.5566 41.7022C28.439 41.1987 29.0626 40.4585 29.4309 39.507C29.4847 39.3677 29.5601 39.3111 29.6933 39.284C30.076 39.2062 30.4582 39.1243 30.8386 39.0356C30.9615 39.0071 31.0364 39.041 31.1297 39.1297C32.0803 40.031 33.1978 40.3992 34.4938 40.1712C35.1497 40.0558 35.7145 39.7482 36.2358 39.3021C36.7799 40.0495 37.2949 40.7861 37.8431 41.4968C38.097 41.8258 38.3837 42.1479 38.713 42.3954C39.2311 42.7849 39.8587 42.855 40.4903 42.8265C41.7137 42.7718 42.7226 42.3053 43.4013 41.2362C43.9334 40.3979 44.1496 39.474 43.8908 38.5122ZM4.9195 8.46625C4.8374 8.42734 4.758 8.38209 4.58484 8.29115C5.04242 8.03463 5.41745 7.77086 5.83106 7.60075C10.4293 5.7114 15.0329 3.83472 19.6391 1.96437C19.7863 1.90465 19.9976 1.89469 20.142 1.95306C25.1906 4.00392 30.2348 6.0661 35.2798 8.12692C35.3372 8.15045 35.3919 8.18076 35.4951 8.23053C35.3547 8.30789 35.252 8.37259 35.1425 8.42372C30.1419 10.7727 25.1413 13.1222 20.1357 15.4608C20.0066 15.521 19.7993 15.516 19.6692 15.4545C14.7489 13.1317 9.83442 10.7985 4.9195 8.46625ZM27.1434 17.8424C27.1295 17.9587 27.13 18.0768 27.13 18.194C27.1291 20.138 27.1232 22.0821 27.1362 24.0262C27.138 24.2986 27.0447 24.4144 26.802 24.5085C24.5523 25.3799 22.2384 25.9445 19.8145 25.9287C17.1916 25.9115 14.7049 25.2532 12.3233 24.1873C11.4422 23.7932 10.5979 23.315 9.74605 22.8585C9.64107 22.802 9.52668 22.6404 9.52623 22.5273C9.51456 19.2906 9.51726 16.054 9.51815 12.8173C9.51815 12.7752 9.52847 12.7336 9.54058 12.6399C10.5661 13.1285 11.5526 13.5977 12.5382 14.0678C14.8593 15.1753 17.1763 16.2915 19.5073 17.3778C19.7015 17.4683 20.0209 17.4303 20.2268 17.3334C23.429 15.8264 26.6217 14.2994 29.8167 12.7775C29.9005 12.7376 29.9867 12.7037 30.1302 12.6417C30.1302 16.0811 30.1302 19.4775 30.1302 22.9309C29.7476 23.1363 29.3138 23.3689 28.819 23.6344C28.819 23.4295 28.819 23.3155 28.819 23.201C28.819 21.4705 28.8217 19.7399 28.8172 18.0094C28.8158 17.399 28.4224 17.066 27.8208 17.1488C27.4368 17.2031 27.1905 17.4511 27.1434 17.8424ZM23.0086 36.9961C22.695 37.0884 22.3703 37.1413 22.0504 37.2114C21.9015 37.244 21.753 37.2757 21.5919 37.3105C21.6695 37.6883 21.7444 38.0516 21.8176 38.4153C21.8301 38.4769 21.84 38.5407 21.8396 38.6031C21.8382 38.842 21.7032 39.0202 21.4914 39.07C21.2846 39.1189 21.0783 39.0139 20.9953 38.7809C20.9226 38.5773 20.8854 38.3606 20.8369 38.1489C20.7885 37.938 20.7459 37.7258 20.6988 37.5046C20.2937 37.5856 19.9065 37.6693 19.5167 37.7394C19.2623 37.7851 19.0743 37.691 18.99 37.4987C18.8707 37.2263 18.9842 36.9707 19.3009 36.8775C19.6145 36.7852 19.9388 36.7305 20.2587 36.659C20.3331 36.6423 20.4072 36.6246 20.5081 36.6011C20.443 36.2817 20.3798 35.9686 20.3156 35.6555C20.2847 35.5039 20.247 35.3537 20.2214 35.2017C20.1743 34.9235 20.3044 34.6945 20.5359 34.6353C20.7853 34.5715 21.0029 34.6823 21.0801 34.9683C21.1989 35.4085 21.2819 35.8582 21.3802 36.3043C21.386 36.331 21.3932 36.3572 21.4062 36.4115C21.8678 36.3156 22.3101 36.2229 22.7534 36.1324C23.0023 36.0817 23.2083 36.155 23.3069 36.3247C23.4684 36.602 23.3514 36.8956 23.0086 36.9961ZM28.5642 35.8021C28.0958 35.9315 27.6176 36.0256 27.2475 36.1102C26.8756 36.1147 26.7065 35.9899 26.6625 35.7618C26.6172 35.5266 26.7087 35.3275 26.9653 35.2587C27.4346 35.1325 27.9114 35.0298 28.391 34.9511C28.6458 34.909 28.8243 35.075 28.8714 35.318C28.9123 35.527 28.8077 35.7347 28.5642 35.8021ZM31.8403 35.1072C31.7564 35.1393 31.6681 35.1615 31.5797 35.18C31.206 35.2592 30.8314 35.3356 30.5353 35.3967C30.1715 35.4053 30.0105 35.289 29.9651 35.047C29.9198 34.8058 30.0199 34.6113 30.2908 34.5398C30.7403 34.4208 31.1966 34.3217 31.6555 34.2471C31.9399 34.2009 32.1149 34.3466 32.1656 34.595C32.2131 34.8307 32.1045 35.0063 31.8403 35.1072ZM33.4118 32.2333C33.4109 31.6067 33.9358 31.086 34.5687 31.0851C35.1582 31.0842 35.6808 31.6289 35.6741 32.2365C35.6669 32.8577 35.1492 33.3685 34.5288 33.3658C33.9174 33.363 33.4127 32.8509 33.4118 32.2333ZM35.2363 36.6988C34.6132 36.697 34.1107 36.183 34.1152 35.551C34.1192 34.9185 34.6423 34.4082 35.2771 34.4172C35.8648 34.4253 36.3739 34.9551 36.3708 35.5551C36.3672 36.179 35.85 36.7006 35.2363 36.6988ZM36.7176 31.5176C36.7202 30.8783 37.2254 30.3892 37.8777 30.3942C38.4649 30.3987 38.9776 30.9253 38.9776 31.5244C38.9776 32.1523 38.473 32.6554 37.8427 32.655C37.2142 32.6545 36.7153 32.1496 36.7176 31.5176ZM38.525 35.9867C37.9126 35.9831 37.4093 35.4673 37.4138 34.8479C37.4183 34.2082 37.9328 33.7101 38.5793 33.7187C39.1714 33.7263 39.6712 34.2525 39.6667 34.8629C39.6622 35.499 39.1634 35.9903 38.525 35.9867Z" fill="#1F1347"/>
</svg>
